{"title":"CHVRCHES Live zdf@Bauhaus [Oct 2013] 720p 50fps 12Mbps","uid":10555987,"size":5834423896,"categoryP":"video","categoryS":"music_videos","magnet":"?xt=urn:btih:6e8e887baccc6edf7ca3946a78fab1c2b7b2967e&amp;dn=CHVRCHES+Live+zdf%40Bauhaus+%5BOct+2013%5D+720p+50fps+12Mbps&amp;tr=udp%3A%2F%2Ftracker.openbittorrent.com%3A80&amp;tr=udp%3A%2F%2Fopen.demonii.com%3A1337&amp;tr=udp%3A%2F%2Ftracker.coppersurfer.tk%3A6969&amp;tr=udp%3A%2F%2Fexodus.desync.com%3A6969","seeders":2,"leechers":2,"uploader":"doragon69","files":2,"time":1405391987,"description":"CHVRCHES live on zdf at Bauhaus, Dessau, Germany\n\nMediaPlayerClassic thumbnails: &lt;a href=&quot;\nhttp://image.bayimg.com/f0086617bc9b7e6a3972b2f9df9a0964d1cb30bc.jpg&quot; rel=&quot;nofollow&quot; target=&quot;_NEW&quot;&gt;\nhttp://image.bayimg.com/f0086617bc9b7e6a3972b2f9df9a0964d1cb30bc.jpg&lt;/a&gt;\n\n.MKV container\nVideo: MPEG4 Video (H264) 1280x720 50fps 12.6Mbps\nAudio1: Dolby AC3 48000Hz 6ch 448kbps \nAudio2: MPEG Audio 48000Hz stereo 256kbps\n\nSetlist:\n00:00:00.000 : Intro\n00:00:42.660 : We Sink\n00:06:13.020 : Gun\n00:10:16.000 : Now Is Not the Time\n00:14:17.000 : Interview #1\n00:17:28.300 : Lies\n00:21:55.000 : Night Sky\n00:26:55.000 : Strong Hand\n00:30:27.000 : Interview #2\n00:34:44.900 : Recover\n00:38:58.200 : Tether\n00:43:59.620 : Interview #3\n00:48:07.580 : Under the Tide\n00:52:55.000 : The Mother We Share\n\nVideo\nFormat : AVC\nFormat/Info : Advanced Video Codec\nFormat profile : &lt;a class=&quot;__cf_email__&quot; href=&quot;/cdn-cgi/l/email-protection&quot; data-cfemail=&quot;155d7c727d5559213b25&quot;&gt;[email&amp;#160;protected]&lt;/a&gt;&lt;script cf-hash='f9e31' type=&quot;text/javascript&quot;&gt;\n/* &lt;![CDATA[ */!function(){try{var t=&quot;currentScript&quot;in document?document.currentScript:function(){for(var t=document.getElementsByTagName(&quot;script&quot;),e=t.length;e--;)if(t[e].getAttribute(&quot;cf-hash&quot;))return t[e]}();if(t&amp;&amp;t.previousSibling){var e,r,n,i,c=t.previousSibling,a=c.getAttribute(&quot;data-cfemail&quot;);if(a){for(e=&quot;&quot;,r=parseInt(a.substr(0,2),16),n=2;a.length-n;n+=2)i=parseInt(a.substr(n,2),16)^r,e+=String.fromCharCode(i);e=document.createTextNode(e),c.parentNode.replaceChild(e,c)}}}catch(u){}}();/* ]]&gt; */&lt;/script&gt;\nFormat settings, CABAC : Yes\nFormat settings, ReFrames : 6 frames\nCodec ID : V_MPEG4/ISO/AVC\nDuration : 57mn 7s\nBit rate : 12.6 Mbps\nWidth : 1 280 pixels\nHeight : 720 pixels\nDisplay aspect ratio : 16:9\nFrame rate mode : Constant\nFrame rate : 50.000 fps\nColor space : YUV\nChroma subsampling : 4:2:0\nBit depth : 8 bits\nScan type : Progressive\nBits/(Pixel*Frame) : 0.274\nStream size : 5.04 GiB (93%)\nDefault : Yes\nForced : No\n\nAudio #1\nFormat : AC-3\nFormat/Info : Audio Coding 3\nMode extension : CM (complete main)\nFormat settings, Endianness : Big\nCodec ID : A_AC3\nDuration : 57mn 7s\nBit rate mode : Constant\nBit rate : 448 Kbps\nChannel(s) : 6 channels\nChannel positions : Front: L C R, Side: L R, LFE\nSampling rate : 48.0 KHz\nBit depth : 16 bits\nCompression mode : Lossy\nDelay relative to video : -7ms\nStream size : 183 MiB (3%)\n\nAudio #2\nFormat : MPEG Audio\nFormat version : Version 1\nFormat profile : Layer 2\nCodec ID : A_MPEG/L2\nCodec ID/Hint : MP2\nDuration : 57mn 7s\nBit rate mode : Constant\nBit rate : 256 Kbps\nChannel(s) : 2 channels\nSampling rate : 48.0 KHz\nCompression mode : Lossy\nDelay relative to video : -14ms\nStream size : 105 MiB (2%)\n","torrent":{"xt":"urn:btih:6e8e887baccc6edf7ca3946a78fab1c2b7b2967e","amp;dn":"CHVRCHES+Live+zdf%40Bauhaus+%5BOct+2013%5D+720p+50fps+12Mbps","amp;tr":["udp%3A%2F%2Ftracker.openbittorrent.com%3A80","udp%3A%2F%2Fopen.demonii.com%3A1337","udp%3A%2F%2Ftracker.coppersurfer.tk%3A6969","udp%3A%2F%2Fexodus.desync.com%3A6969"],"infoHash":"6e8e887baccc6edf7ca3946a78fab1c2b7b2967e","infoHashBuffer":{"type":"Buffer","data":[110,142,136,123,172,204,110,223,124,163,148,106,120,250,177,194,183,178,150,126]},"announce":[],"urlList":[]}}